# xmcd
# 
# Track frame offsets:
#   150
#   14390
#   29154
#   50764
#   69269
#   83503
#   99292
#   114768
#   132201
#   145813
#   162471
#   178421
#   200267
# 
# Disc length: 2903 seconds
# 
# Revision: 0
# Processed by: cddbd v1.5.2PL0 Copyright (c) Steve Scherf et al.
# Submitted via: Synapstar 1.0 
# 
DISCID=ad0b550d
DTITLE=Julie Roberts - Dawn's Julie Roberts
DYEAR=1900
DGENRE=Country
TTITLE0=Wake Up Older
TTITLE1=No Way Out
TTITLE2=The Chance
TTITLE3=Breakdown Here
TTITLE4=Wake Up Older
TTITLE5=Too Damn Old
TTITLE6=First To Never Know
TTITLE7=Chasin' Whiskey
TTITLE8=Girl Next Door
TTITLE9=Lonely Alone
TTITLE10=That Ain't A Crime
TTITLE11=All I Want Is You
TTITLE12=Mamma Don't Cry
EXTD=MediaType: Audio CD Producer: Unknown
EXTT0=
EXTT1=
EXTT2=
EXTT3=
EXTT4=
EXTT5=
EXTT6=
EXTT7=
EXTT8=
EXTT9=
EXTT10=
EXTT11=
EXTT12=
PLAYORDER=
